# xmcd
#
# Track frame offsets:
#	150
#	30017
#	59306
#	81648
#	129501
#	142531
#	168151
#	181718
#
# Disc length: 3042 seconds
#
# Revision: 1
# Processed by: cddbd v1.5.2PL0 Copyright (c) Steve Scherf et al.
# Submitted via: audiograbber 1.83.01
#
DISCID=550be008
DTITLE=Grateful Dead - 71-12-31 Winterland Arena, San Francisco CA
DYEAR=1900
DGENRE=
TTITLE0=Playing In The Band
TTITLE1=Loser
TTITLE2=One More Saturday Night
TTITLE3=Truckin'
TTITLE4=Drums
TTITLE5=The Other One
TTITLE6=Me and My Uncle
TTITLE7=The Other One
EXTD=
EXTT0=
EXTT1=
EXTT2=
EXTT3=
EXTT4=
EXTT5=
EXTT6=
EXTT7=
PLAYORDER=
